<svg id="Ebene_4" data-name="Ebene 4" xmlns="http://www.w3.org/2000/svg" width="1066.45" height="283.46" viewBox="0 0 1066.45 283.46"><defs><style>.cls-1{fill:#bddbb5;}.cls-2{fill:#17a244;}</style></defs><g id="LOGO"><path d="M25.35,109.44a12.53,12.53,0,0,0,4.26-2.77v-14H18.7v3.5h7.05v8.68a7.09,7.09,0,0,1-2.61,1.44,10.48,10.48,0,0,1-3.37.54,11,11,0,0,1-4.75-1,9.32,9.32,0,0,1-3.45-2.74,12.5,12.5,0,0,1-2.13-4.29,20.09,20.09,0,0,1-.74-5.65,18.52,18.52,0,0,1,.79-5.58,12.64,12.64,0,0,1,2.21-4.24,9.45,9.45,0,0,1,3.45-2.69,10.66,10.66,0,0,1,4.56-.94,8.69,8.69,0,0,1,4.21.92,11.88,11.88,0,0,1,2.95,2.23l2.33-2.74a13.54,13.54,0,0,0-1.65-1.5,11.66,11.66,0,0,0-2.13-1.32,13,13,0,0,0-2.64-.94A13.62,13.62,0,0,0,19.61,76a15.59,15.59,0,0,0-6.11,1.19,13.76,13.76,0,0,0-4.85,3.42,16,16,0,0,0-3.17,5.43,21.39,21.39,0,0,0-1.14,7.21,22,22,0,0,0,1.12,7.28A15.62,15.62,0,0,0,8.55,106a13.17,13.17,0,0,0,4.75,3.37,15.37,15.37,0,0,0,6.06,1.17,15.53,15.53,0,0,0,6-1.09Zm24.19.48v-14h6l8,14h4.77L59.89,95.41a10.3,10.3,0,0,0,5.48-3.2,9.12,9.12,0,0,0,2-6.24,9.85,9.85,0,0,0-.86-4.36,7.64,7.64,0,0,0-2.41-2.89,9.88,9.88,0,0,0-3.7-1.6,21.68,21.68,0,0,0-4.7-.48H45.33v33.28Zm0-29.88h5.58a11.23,11.23,0,0,1,6,1.32Q63.2,82.68,63.19,86a5.73,5.73,0,0,1-2.08,4.85,9.71,9.71,0,0,1-6,1.6H49.54V80Zm48.87,29.75a9.06,9.06,0,0,0,3.78-2.43,11.61,11.61,0,0,0,2.51-4.44,21.54,21.54,0,0,0,.92-6.75V76.64h-4.06V96.27a17.88,17.88,0,0,1-.61,5,8.65,8.65,0,0,1-1.68,3.25,6.07,6.07,0,0,1-2.48,1.75,8.66,8.66,0,0,1-3.1.53,8.49,8.49,0,0,1-3-.53,5.88,5.88,0,0,1-2.46-1.75,8.77,8.77,0,0,1-1.65-3.25,17.52,17.52,0,0,1-.61-5V76.64H81.72V96.17a21.56,21.56,0,0,0,.91,6.75,11.88,11.88,0,0,0,2.51,4.44A9.16,9.16,0,0,0,89,109.79a14.9,14.9,0,0,0,4.74.74,14.64,14.64,0,0,0,4.72-.74Zm27.91.13V96.73h5.48a18.52,18.52,0,0,0,5-.63,11.23,11.23,0,0,0,3.89-1.91A8.48,8.48,0,0,0,143.19,91a10.89,10.89,0,0,0,.89-4.57,10.51,10.51,0,0,0-.92-4.62,7.86,7.86,0,0,0-2.53-3,10.74,10.74,0,0,0-3.94-1.64,23.69,23.69,0,0,0-5.1-.51h-9.48v33.28Zm0-29.88h4.77q4.35,0,6.57,1.39t2.2,5q0,3.55-2.1,5.2c-1.41,1.1-3.56,1.65-6.47,1.65h-5V80Zm35.82,29.88V96.73h5.48a18.65,18.65,0,0,0,5-.63,11.27,11.27,0,0,0,3.88-1.91A8.48,8.48,0,0,0,179,91a10.89,10.89,0,0,0,.89-4.57,10.51,10.51,0,0,0-.92-4.62,7.78,7.78,0,0,0-2.53-3,10.74,10.74,0,0,0-3.94-1.64,23.59,23.59,0,0,0-5.09-.51h-9.49v33.28Zm0-29.88h4.77q4.36,0,6.57,1.39t2.2,5q0,3.55-2.1,5.2c-1.41,1.1-3.56,1.65-6.47,1.65h-5V80Zm51.29,29.88v-3.6H198V94.24h12.63v-3.6H198V80.19h15V76.64H193.75v33.28Z"/><path class="cls-1" d="M99.33,201.14c36.84,53.72,100.53,83.63,177.54,82.28C367.66,281.84,448,235.15,475.06,163.8c-39,60.92-115,101.12-200.8,102.62-70.18,1.23-131.7-23.17-174.93-65.28Z"/><path class="cls-2" d="M97.13,66.42,109,5.14H66.22L54.31,66.42ZM2.69,229.79,0,244.8c23.55-3,43.85-12.12,59.9-32.39,12.81-16,16.67-40.26,20.56-60.24L86.7,120H43.88L36.63,157.3c-6.84,35.23-10,63-33.94,72.49Z"/><path class="cls-2" d="M320.52,14.23C302.79,4.29,282.78,0,260.51,0c-51.79,0-99.24,22.38-123.94,66.42h47.24c15.6-28.61,41-49.29,73.94-49.29,21.22,0,38.85,9,48.71,25.92l14.06-28.82ZM167.23,120H120c-4.94,58.22,40.48,84.66,96.78,84.66,25.12,0,51.64-5.71,78.72-12.85l15-81.43.23-.14h-.21v-.06l-.24.06H243.57l-5.52,26h25.38L255,179.57a70.29,70.29,0,0,1-33,8c-39.81,0-59.31-25-54.82-67.53Z"/></g><g id="Zeile_unten" data-name="Zeile unten"><path d="M366.35,110.34h4.23v16.77h.15l13.93-16.77h4.79L379,123.09l12.08,20.7h-4.74l-10-17.39-5.76,6.78v10.61h-4.23V110.34Z"/><path d="M415.67,144.4a13.47,13.47,0,0,1-5.79-1.22,12.92,12.92,0,0,1-4.52-3.49,16.64,16.64,0,0,1-2.93-5.51,23.5,23.5,0,0,1-1.05-7.27,23,23,0,0,1,1.05-7.22,15.91,15.91,0,0,1,2.93-5.4,12.68,12.68,0,0,1,4.52-3.4,14.06,14.06,0,0,1,5.79-1.17,13.75,13.75,0,0,1,5.78,1.2,13,13,0,0,1,4.54,3.42,15.62,15.62,0,0,1,3,5.4,22.9,22.9,0,0,1,1.05,7.17,23.55,23.55,0,0,1-1.05,7.27,16,16,0,0,1-3,5.5,13,13,0,0,1-4.54,3.5A13.61,13.61,0,0,1,415.67,144.4Zm0-3.72a8.42,8.42,0,0,0,4.05-1,9,9,0,0,0,3.11-2.78,13.76,13.76,0,0,0,2-4.33,21.19,21.19,0,0,0,.71-5.69,20.69,20.69,0,0,0-.71-5.61,12.89,12.89,0,0,0-2-4.23,9.13,9.13,0,0,0-3.11-2.68,9.22,9.22,0,0,0-8.11,0,9.13,9.13,0,0,0-3.11,2.68,12.59,12.59,0,0,0-2,4.23,20.29,20.29,0,0,0-.72,5.61,20.78,20.78,0,0,0,.72,5.69,13.53,13.53,0,0,0,2,4.33,9,9,0,0,0,3.11,2.78A8.43,8.43,0,0,0,415.67,140.68Zm-5.26-33.35a2.54,2.54,0,0,1-1.78-4.31,2.54,2.54,0,0,1,3.59,3.59A2.39,2.39,0,0,1,410.41,107.33Zm10.51,0a2.39,2.39,0,0,1-1.81-.72A2.54,2.54,0,0,1,422.7,103a2.52,2.52,0,0,1-1.78,4.31Z"/><path d="M445.65,110.34h4.23v29.83h14.64v3.62H445.65Z"/><path d="M478.9,110.34h4.39l12.09,21,3.62,6.93h.2q-.15-2.55-.33-5.28c-.12-1.81-.18-3.61-.18-5.38V110.34h4v33.45h-4.39L486.2,122.73l-3.62-6.89h-.21c.14,1.7.27,3.43.38,5.18s.18,3.51.18,5.28v17.49h-4V110.34Z"/></g><g id="Zeile_oben" data-name="Zeile oben"><path d="M366.31,29.3h28.76v7.16h-20.3V48.65h17.16V55.8H374.77V69.89h21V77H366.31Z"/><path d="M415,77.92A13.09,13.09,0,0,1,404.25,73q-4-4.92-4-13.83a22.89,22.89,0,0,1,1.28-7.88,18.41,18.41,0,0,1,3.39-5.92,15.22,15.22,0,0,1,4.86-3.72,12.87,12.87,0,0,1,5.66-1.32,11.58,11.58,0,0,1,5.18,1.06,20.82,20.82,0,0,1,4.23,2.89l-.29-5.77v-13H433V77.05H426l-.58-3.87h-.29a19.09,19.09,0,0,1-4.6,3.35A11.66,11.66,0,0,1,415,77.92Zm2-6.93q4,0,7.52-4V50.25a12,12,0,0,0-3.68-2.33,10.42,10.42,0,0,0-3.62-.66,7.26,7.26,0,0,0-5.91,3.07Q409,53.39,409,59.09T411,68A6.85,6.85,0,0,0,417.06,71Z"/><path d="M452.53,77.92q-5.76,0-8.39-3.69t-2.63-10.54V41.2h8.4V62.59c0,3,.43,5.06,1.31,6.28a4.84,4.84,0,0,0,4.23,1.82,7.44,7.44,0,0,0,4.13-1.16,17,17,0,0,0,3.83-3.8V41.2h8.4V77h-6.87l-.65-5.25h-.22A21,21,0,0,1,459,76.24,12.1,12.1,0,0,1,452.53,77.92Z"/><path d="M489.23,77.92A10.43,10.43,0,0,1,481.57,75a10.23,10.23,0,0,1-2.92-7.63,10.49,10.49,0,0,1,1.2-5.07,10.33,10.33,0,0,1,3.8-3.84,25,25,0,0,1,6.57-2.7,60,60,0,0,1,9.52-1.68,13.54,13.54,0,0,0-.4-2.66,6.09,6.09,0,0,0-1.09-2.26,5.25,5.25,0,0,0-2-1.54,7.7,7.7,0,0,0-3.07-.55,13.55,13.55,0,0,0-5.14,1,35,35,0,0,0-4.93,2.48L480,45a36.2,36.2,0,0,1,6.72-3.29,22.92,22.92,0,0,1,8-1.39q6.72,0,10,4t3.32,11.5V77H501.2l-.58-3.94h-.29a26.09,26.09,0,0,1-5.15,3.43A12.9,12.9,0,0,1,489.23,77.92Zm2.7-6.57a7.89,7.89,0,0,0,4-1,21.06,21.06,0,0,0,3.83-2.92v-8a37.66,37.66,0,0,0-6.13,1.17,17.36,17.36,0,0,0-4,1.64,5.73,5.73,0,0,0-2.19,2.08,5,5,0,0,0-.66,2.48,4.1,4.1,0,0,0,1.46,3.51A6,6,0,0,0,491.93,71.35Z"/><path d="M516.54,41.2h6.93l.59,6.35h.29a15.12,15.12,0,0,1,4.6-5.36,10.12,10.12,0,0,1,9.64-1.13l-1.46,7.3a15.05,15.05,0,0,0-1.76-.44,10.89,10.89,0,0,0-2-.15A7.8,7.8,0,0,0,529,49.42a12.62,12.62,0,0,0-4,5.73V77h-8.39V41.2Z"/><path d="M554.82,77.92A13.09,13.09,0,0,1,544.05,73q-4-4.92-4-13.83a22.89,22.89,0,0,1,1.28-7.88,18.41,18.41,0,0,1,3.39-5.92,15.11,15.11,0,0,1,4.86-3.72,12.87,12.87,0,0,1,5.66-1.32,11.58,11.58,0,0,1,5.18,1.06,20.82,20.82,0,0,1,4.23,2.89l-.29-5.77v-13h8.4V77.05h-6.94l-.58-3.87H565a18.71,18.71,0,0,1-4.6,3.35A11.65,11.65,0,0,1,554.82,77.92Zm2-6.93q4,0,7.52-4V50.25a12,12,0,0,0-3.68-2.33,10.42,10.42,0,0,0-3.62-.66,7.26,7.26,0,0,0-5.91,3.07q-2.42,3.06-2.41,8.76T550.84,68A6.85,6.85,0,0,0,556.86,71Z"/><path d="M592.33,77.92q-5.76,0-8.39-3.69t-2.63-10.54V41.2h8.4V62.59c0,3,.43,5.06,1.31,6.28a4.84,4.84,0,0,0,4.23,1.82,7.44,7.44,0,0,0,4.13-1.16,17,17,0,0,0,3.83-3.8V41.2h8.4V77h-6.87l-.65-5.25h-.22a21,21,0,0,1-5.08,4.45A12.07,12.07,0,0,1,592.33,77.92Z"/><path d="M630.69,77.92a19.82,19.82,0,0,1-7.33-1.42A23.74,23.74,0,0,1,617.12,73l3.94-5.4a22.62,22.62,0,0,0,4.78,3A12.43,12.43,0,0,0,631,71.57a6.46,6.46,0,0,0,4.3-1.2,3.93,3.93,0,0,0,1.39-3.11,3,3,0,0,0-.66-1.93,6.22,6.22,0,0,0-1.75-1.5,16.35,16.35,0,0,0-2.48-1.2c-.92-.37-1.85-.74-2.77-1.13-1.17-.44-2.36-1-3.58-1.54a14.43,14.43,0,0,1-3.25-2.11A10.7,10.7,0,0,1,619.85,55a8,8,0,0,1-.91-3.9,9.7,9.7,0,0,1,3.51-7.74q3.49-3,9.56-3a16.51,16.51,0,0,1,6.72,1.31,25.26,25.26,0,0,1,5.18,3L640,49.74a20.36,20.36,0,0,0-3.83-2.22,10.06,10.06,0,0,0-4.05-.84,5.84,5.84,0,0,0-4,1.13,3.57,3.57,0,0,0-1.28,2.81,2.88,2.88,0,0,0,.62,1.86,5.73,5.73,0,0,0,1.64,1.35,16.13,16.13,0,0,0,2.38,1.1c.89.34,1.83.68,2.81,1,1.21.44,2.43.94,3.65,1.49a15.48,15.48,0,0,1,3.32,2.08,9.68,9.68,0,0,1,2.41,3,9.44,9.44,0,0,1,.91,4.27,10.53,10.53,0,0,1-.91,4.35,10,10,0,0,1-2.67,3.5,13.09,13.09,0,0,1-4.38,2.38A19,19,0,0,1,630.69,77.92Z"/><path d="M649.05,55.58h17.37v6.13H649.05Z"/><path d="M675.12,29.3h8.47V51h.22l17-21.68h9.41L695.56,47.92,712.72,77h-9.35L690.45,54.56l-6.86,8.54V77h-8.47Z"/><path d="M717.35,41.2h6.94l.58,6.35h.29a15.12,15.12,0,0,1,4.6-5.36,10.12,10.12,0,0,1,9.64-1.13l-1.46,7.3a15.44,15.44,0,0,0-1.75-.44,11.09,11.09,0,0,0-2-.15,7.8,7.8,0,0,0-4.45,1.65,12.61,12.61,0,0,0-4,5.73V77h-8.4V41.2Z"/><path d="M752.4,77.92A10.44,10.44,0,0,1,744.74,75a10.23,10.23,0,0,1-2.92-7.63,9.81,9.81,0,0,1,5-8.91,25.3,25.3,0,0,1,6.57-2.7,60.11,60.11,0,0,1,9.53-1.68,14.33,14.33,0,0,0-.4-2.66,6.11,6.11,0,0,0-1.1-2.26,5.11,5.11,0,0,0-2-1.54,7.68,7.68,0,0,0-3.06-.55,13.6,13.6,0,0,0-5.15,1,35,35,0,0,0-4.93,2.48L743.21,45a35.8,35.8,0,0,1,6.71-3.29,22.92,22.92,0,0,1,8-1.39q6.72,0,10,4t3.32,11.5V77h-6.93l-.59-3.94h-.29a25.8,25.8,0,0,1-5.15,3.43A12.87,12.87,0,0,1,752.4,77.92Zm2.71-6.57a7.85,7.85,0,0,0,4-1,21.1,21.1,0,0,0,3.84-2.92v-8a37.45,37.45,0,0,0-6.13,1.17,17.27,17.27,0,0,0-4,1.64,5.88,5.88,0,0,0-2.19,2.08,5,5,0,0,0-.66,2.48,4.12,4.12,0,0,0,1.46,3.51A6.07,6.07,0,0,0,755.11,71.35Z"/><path d="M779.71,41.2h6.94l.58,4.82h.29a28.62,28.62,0,0,1,5.22-4,12.63,12.63,0,0,1,6.54-1.68q5.76,0,8.39,3.69t2.63,10.55V77h-8.39V55.65c0-3-.44-5.06-1.32-6.27a4.93,4.93,0,0,0-4.31-1.83,7.58,7.58,0,0,0-4.12,1.13,26.81,26.81,0,0,0-4,3.32V77h-8.4V41.2Z"/><path d="M818.8,25.51h8.25V57.7h.22l13.28-16.5h9.2L837.48,55.8,851,77h-9.12l-9.2-15.54-5.62,6.42V77H818.8Z"/><path d="M869.27,77.92a18.6,18.6,0,0,1-6.93-1.28A16.47,16.47,0,0,1,856.72,73,16.82,16.82,0,0,1,853,67.08a21.7,21.7,0,0,1-1.35-7.92A21.12,21.12,0,0,1,853,51.28a18.08,18.08,0,0,1,3.68-5.92,16.53,16.53,0,0,1,5.3-3.72,15,15,0,0,1,6.13-1.31,15.55,15.55,0,0,1,6.42,1.24,12.43,12.43,0,0,1,4.64,3.5,15.58,15.58,0,0,1,2.81,5.4,23.75,23.75,0,0,1,.95,6.86c0,.83,0,1.61-.11,2.34a14.24,14.24,0,0,1-.26,1.75H859.79a11.58,11.58,0,0,0,3.39,7.41,10.17,10.17,0,0,0,7.19,2.59,13.31,13.31,0,0,0,4.35-.69,19.59,19.59,0,0,0,4-1.93l2.85,5.25a25.26,25.26,0,0,1-5.69,2.77A19.63,19.63,0,0,1,869.27,77.92Zm6.36-22.19a10.64,10.64,0,0,0-1.79-6.53,6.45,6.45,0,0,0-5.51-2.38,8,8,0,0,0-5.63,2.27,10.76,10.76,0,0,0-3,6.64Z"/><path d="M889.6,41.2h6.94l.58,4.82h.29a28.62,28.62,0,0,1,5.22-4,12.63,12.63,0,0,1,6.54-1.68q5.76,0,8.39,3.69t2.63,10.55V77H911.8V55.65c0-3-.44-5.06-1.32-6.27a4.92,4.92,0,0,0-4.3-1.83,7.59,7.59,0,0,0-4.13,1.13A26.81,26.81,0,0,0,898,52V77h-8.4V41.2Z"/><path d="M928.69,25.51h8.39V38.79l-.29,6.94a29.59,29.59,0,0,1,5-3.76,12.29,12.29,0,0,1,6.46-1.64q5.78,0,8.4,3.68t2.63,10.55V77h-8.4V55.65c0-3-.44-5.06-1.31-6.27a4.94,4.94,0,0,0-4.31-1.83,7.56,7.56,0,0,0-4.12,1.13A26.48,26.48,0,0,0,937.08,52V77h-8.39Z"/><path d="M976.21,77.92A10.45,10.45,0,0,1,968.54,75a10.23,10.23,0,0,1-2.92-7.63,9.81,9.81,0,0,1,5-8.91,25.3,25.3,0,0,1,6.57-2.7,60.11,60.11,0,0,1,9.53-1.68,14.33,14.33,0,0,0-.4-2.66,6.11,6.11,0,0,0-1.1-2.26,5.11,5.11,0,0,0-2-1.54,7.68,7.68,0,0,0-3.06-.55,13.6,13.6,0,0,0-5.15,1,35,35,0,0,0-4.93,2.48L967,45a35.8,35.8,0,0,1,6.71-3.29,22.92,22.92,0,0,1,8-1.39q6.72,0,10,4t3.32,11.5V77h-6.93l-.59-3.94h-.29a25.51,25.51,0,0,1-5.15,3.43A12.86,12.86,0,0,1,976.21,77.92Zm2.7-6.57a7.85,7.85,0,0,0,4-1,21.1,21.1,0,0,0,3.84-2.92v-8a37.45,37.45,0,0,0-6.13,1.17,17.27,17.27,0,0,0-4,1.64,5.88,5.88,0,0,0-2.19,2.08,5,5,0,0,0-.66,2.48,4.12,4.12,0,0,0,1.46,3.51A6.07,6.07,0,0,0,978.91,71.35Z"/><path d="M1014.15,77.92q-5.77,0-8.4-3.69t-2.63-10.54V41.2h8.4V62.59q0,4.45,1.31,6.28a4.86,4.86,0,0,0,4.24,1.82,7.43,7.43,0,0,0,4.12-1.16,17,17,0,0,0,3.83-3.8V41.2h8.4V77h-6.86l-.66-5.25h-.22a21.18,21.18,0,0,1-5.07,4.45A12.12,12.12,0,0,1,1014.15,77.92Z"/><path d="M1052.51,77.92a19.87,19.87,0,0,1-7.34-1.42,23.74,23.74,0,0,1-6.24-3.54l3.94-5.4a22.87,22.87,0,0,0,4.78,3,12.46,12.46,0,0,0,5.15,1.06,6.49,6.49,0,0,0,4.31-1.2,4,4,0,0,0,1.39-3.11,3,3,0,0,0-.66-1.93,6.37,6.37,0,0,0-1.75-1.5,16,16,0,0,0-2.49-1.2c-.92-.37-1.85-.74-2.77-1.13-1.17-.44-2.36-1-3.58-1.54a14.36,14.36,0,0,1-3.24-2.11,10.7,10.7,0,0,1-2.34-2.89,7.86,7.86,0,0,1-.91-3.9,9.72,9.72,0,0,1,3.5-7.74q3.51-3,9.56-3a16.48,16.48,0,0,1,6.72,1.31,25,25,0,0,1,5.18,3l-3.87,5.11a20.05,20.05,0,0,0-3.83-2.22,10.06,10.06,0,0,0-4-.84,5.86,5.86,0,0,0-4,1.13,3.6,3.6,0,0,0-1.28,2.81,2.88,2.88,0,0,0,.62,1.86,5.92,5.92,0,0,0,1.65,1.35,16.48,16.48,0,0,0,2.37,1.1c.9.34,1.84.68,2.81,1,1.22.44,2.43.94,3.65,1.49a15.24,15.24,0,0,1,3.32,2.08,9.54,9.54,0,0,1,2.41,3,9.31,9.31,0,0,1,.91,4.27,10.37,10.37,0,0,1-.91,4.35,9.92,9.92,0,0,1-2.66,3.5,13.09,13.09,0,0,1-4.38,2.38A19,19,0,0,1,1052.51,77.92Z"/></g></svg>